<?xml version="1.0" encoding="utf-8"?>
<!-- Generator: Adobe Illustrator 26.3.1, SVG Export Plug-In . SVG Version: 6.00 Build 0)  -->
<svg version="1.1" xmlns="http://www.w3.org/2000/svg" xmlns:xlink="http://www.w3.org/1999/xlink" x="0px" y="0px" width="630px"
	 height="401.9px" viewBox="0 0 630 401.9" style="enable-background:new 0 0 630 401.9;" xml:space="preserve">
<style type="text/css">
	.st0{display:none;}
	.st1{display:inline;}
	.st2{display:inline;fill:#770000;}
	.st3{display:inline;fill:#CACCCE;}
	.st4{fill:#FFFFFF;}
	.st5{fill:#CBCCCE;}
	.st6{fill:#770000;}
</style>
<g id="rgb_Black_bkgd" class="st0">
	<rect x="-3.6" y="-2" class="st1" width="635.4" height="406.2"/>
	
		<rect x="676.3" y="71" transform="matrix(-1.836970e-16 1 -1 -1.836970e-16 818.0228 -591.766)" class="st2" width="57.2" height="84.3"/>
	
		<rect x="676.3" y="141.1" transform="matrix(-1.836970e-16 1 -1 -1.836970e-16 888.1008 -521.6879)" class="st1" width="57.2" height="84.3"/>
	
		<rect x="676.3" y="211.1" transform="matrix(3.179073e-14 1 -1 3.179073e-14 958.1789 -451.6099)" class="st3" width="57.2" height="84.3"/>
	
		<text transform="matrix(1 0 0 1 761.5759 106.6879)" style="display:inline;fill:#231F20; font-family:'MyriadPro-Regular'; font-size:21.0342px;">RGB</text>
	
		<text transform="matrix(1 0 0 1 761.5759 132.9232)" style="display:inline;fill:#231F20; font-family:'MyriadPro-Regular'; font-size:21.0342px;">Hex</text>
	
		<text transform="matrix(1 0 0 1 806.7576 106.1918)" style="display:inline;fill:#231F20; font-family:'MyriadPro-Regular'; font-size:21.0342px;">119, 0, 0</text>
	
		<text transform="matrix(1 0 0 1 806.7576 133.3969)" style="display:inline;fill:#231F20; font-family:'MyriadPro-Regular'; font-size:21.0342px;">#770000</text>
	
		<text transform="matrix(1 0 0 1 761.5759 175.5219)" style="display:inline;fill:#231F20; font-family:'MyriadPro-Regular'; font-size:21.0342px;">RGB</text>
	
		<text transform="matrix(1 0 0 1 761.5759 201.7582)" style="display:inline;fill:#231F20; font-family:'MyriadPro-Regular'; font-size:21.0342px;">Hex</text>
	
		<text transform="matrix(1 0 0 1 806.7576 175.0248)" style="display:inline;fill:#231F20; font-family:'MyriadPro-Regular'; font-size:21.0342px;">0, 0, 0</text>
	
		<text transform="matrix(1 0 0 1 806.7576 202.2318)" style="display:inline;fill:#231F20; font-family:'MyriadPro-Regular'; font-size:21.0342px;">#000000</text>
	
		<text transform="matrix(1 0 0 1 761.5759 246.2982)" style="display:inline;fill:#231F20; font-family:'MyriadPro-Regular'; font-size:21.0342px;">RGB</text>
	
		<text transform="matrix(1 0 0 1 761.5759 272.5336)" style="display:inline;fill:#231F20; font-family:'MyriadPro-Regular'; font-size:21.0342px;">Hex</text>
	
		<text transform="matrix(1 0 0 1 806.7576 245.8011)" style="display:inline;fill:#231F20; font-family:'MyriadPro-Regular'; font-size:21.0342px;">#203, 204, 206</text>
	
		<text transform="matrix(1 0 0 1 806.7576 273.0062)" style="display:inline;fill:#231F20; font-family:'MyriadPro-Regular'; font-size:21.0342px;">#cbccce</text>
</g>
<g id="rgb_Crimson_bkgd" class="st0">
	<rect x="-3.6" y="-2" class="st2" width="635.4" height="406.2"/>
</g>
<g id="_x31_c_logo_onLt" class="st0">
	<path class="st1" d="M587.2,213.5c-0.2-0.3-0.7-0.8-5-3.8c-7.6-26.2-32.2-41.3-32.2-41.3s-2.4-45.2-93.6-88.9
		c-8.1-11.6-13.8-22-15.2-24.4c-0.1-0.2-0.3-0.3-0.9-0.4c-13.8-0.5-22.6,9.4-25.4,13c-17.6-2.7-36.4-3.7-56.6-3
		c-16-7.9-26.9-14.4-30.2-15.9c-0.8-0.3-1.1-0.1-1.2,0c-7.4,6.4-10.7,14.4-12.2,19.9c-83.3,9.7-151.7,44.6-170.1,53.8
		c-58.7,29.6-101.3,71.5-107.5,77.6c-1.3,1.4-2.5,3.5-2.4,4.2c28.9-17.6,172-97.7,302.3-49.7l-0.8,0.8
		c-46.8-12.6-142.6-9.8-226.7,35.8c-8,4.5-13.5,9.9-12.7,10.7c42.7-2.3,114.8,20.3,138.8,80c24.4,60.6,60.7,74.5,92.7,76.1
		c0,0,0-0.1-0.1-0.1c-21.6-25.4-16-80,29.6-95.7c-16.3-6.7-64.1-24.7-66.2-56.5c-40-15.4-83.9,4.1-95.1,9.7l0.2-0.7
		c54.6-39.1,109.1-23,112.7-21.9c-0.5,0.7-1,1.9-1.4,3c-9.4,36,43.1,56.8,65.6,63.9c70.8,20.9,63,63,68.5,65
		c35.3,12.7,62.5-6.1,62.5-6.1s-1-2-3.5-6.4c8-8.6,6.9-19.5,6.4-22.8c-0.1-0.6-0.6-0.6-0.8-0.4c-4.8,4.9-9.2,7.8-12.9,9.5
		c-0.1-0.1-0.1-0.1-0.2-0.2c2.2-3.6,1.7-8,1.3-10c-0.1-0.7-0.5-0.8-0.9-0.4c-1.2,1.1-3.8,3.4-6.6,3.7c-4.5-3.3-9-10.4-11.2-16.1
		c-4.8-12.4-1.6-23.9,10.7-34.1c16.8-13.8,38.1-6.2,39.1-2.3c0.8,13.7-4.4,21.5-5.9,24.2c-0.3,0.5-0.2,0.8,0.2,0.7
		c2.4-0.4,12.6-2.9,18.6-9.1c0.4-0.3,1.9,2.9,3,6.8c0.1,0.2,0.1,0.2,0.4,0.2c13.6-3.1,25.9-13.9,30.4-22.2
		C584.6,230.4,587.4,213.8,587.2,213.5z M135.3,142.1c0-0.1,0.2-0.7,0.5-0.9c93-49.9,177.7-53.7,177.7-53.7c0.8,18,12,26.5,12,26.5
		C249.2,103.6,174.1,126.2,135.3,142.1z M481.8,295c-2.7,1.6-5.4,2.9-7.9,3.9c-2.3-1.5-4.9-3.9-7.8-7.7
		c-10.9-14.6-4.2-33.3,3.2-39.7c0.2,0.1,0.7-0.2,1.2-0.3C459.2,270,473.4,287.2,481.8,295z M546.2,197.2c-0.3,0.1,0.6,1.8,0.8,1.9
		c4.5,2.8,22.4,15,18.4,35.4c-2.7,6.1-8.5,10.1-13.9,11.5c-0.2,0-0.1-0.7-0.5-1.7c-2.3-5.3-32.1-59.7-190.8-41.4l0.3-0.6
		c0,0,89-24,170.5,4.5c0,0,0.1,0,0.1,0c0-0.3,0-1.5-0.1-1.5c-0.1-0.1-0.1-0.1-0.2-0.2c-17.5-14-60.6-33-151.4-28.8l0.2-0.6
		c0,0,70.3-13.2,132.4,4.6c10.3,2.9,14.3-3,15.2-5.2c-23.5-2-12.6-38.9-55-44.7c-3.8-0.5-7.8-0.2-9,0.1c-0.5,0.1-0.7,0.3-0.2,0.4
		c2.9,1.2,13.8,6.8,11.5,23.6c-19.8-15.6-54-27.5-83.9-30.4c1-2.3,22.2-2,18-15c-0.1-0.2-0.1-0.4-0.2-0.6c-0.4-0.1-0.7-0.1-1.1-0.2
		c-36.7-7.1-63.1-21.9-65.3-21.8c0,0-0.3-0.1-0.4,0.5c-0.6,4.3-2.5,30.7,29.1,40c-1.3,0.5-7.2,1.7-20.1-5.7
		c-31.8-18.5-23.2-51.6-19.1-53c5,2.5,47.5,24.7,92.8,33.3c0.3-0.1,0.9-0.2,0.3-0.5c-17.6-7.5-35-17.5-35-17.5
		c24-2.2,66.4,5.3,101.4,29.2c44.7,30.6,48.4,60,48.4,60s25,12.9,29.9,30.7C562.6,200.3,549.8,196.9,546.2,197.2z M483,157.4
		c-0.3-7.4,6.5-8.2,6.5-8.2c1.6,1.8,3.1,3.6,4.5,5.4c-0.4,0.2-0.8,0.4-0.8,0.4c-0.1,1.2-1.1,2.2-2.4,2.1l-0.3,0
		c-0.4,0-1.1-0.3-1.7-0.7c-0.9,1-1.5,2.3-1.6,3.7l0,0.2C484.6,158.7,483,157.4,483,157.4z M497.6,166.2c1.2-0.9,2.1-2.2,2.5-3.7
		c2.2,2.9,3.5,4.9,3.5,4.9s0,0.6-0.2,0.9C501.3,167.7,499.4,166.9,497.6,166.2z"/>
</g>
<g id="_x31_c_logo_onDark" class="st0">
	<g class="st1">
		<g>
			<path class="st4" d="M539.6,172.9c0,0-3.7-29.4-48.4-60c-35-23.9-77.3-31.4-101.4-29.2c0,0,17.4,9.9,35,17.5
				c0.6,0.3,0,0.4-0.3,0.5c-45.3-8.7-87.9-30.9-92.8-33.3c-4.1,1.4-12.7,34.6,19.1,53c12.9,7.5,18.8,6.2,20.1,5.7
				c-31.6-9.3-29.7-35.7-29.1-40c0.1-0.6,0.4-0.5,0.4-0.5c2.2,0,28.5,14.7,65.3,21.8c0.3,0.1,0.7,0.1,1.1,0.2
				c0.1,0.2,0.2,0.4,0.2,0.6c4.1,13-17,12.6-18,15c29.8,3,64.1,14.9,83.9,30.4c2.3-16.8-8.5-22.4-11.5-23.6
				c-0.5-0.2-0.2-0.3,0.2-0.4c1.2-0.3,5.2-0.6,9-0.1c42.4,5.8,31.5,42.7,55,44.7c-0.9,2.2-4.9,8.1-15.2,5.2
				c-62-17.8-132.4-4.6-132.4-4.6l-0.2,0.6c90.8-4.1,133.9,14.8,151.4,28.8c0,0,0.1,0.1,0.2,0.2c0.1,0.1,0.1,1.2,0.1,1.5
				c0,0.1-0.1,0-0.1,0c-81.6-28.5-170.5-4.5-170.5-4.5l-0.3,0.6c158.7-18.3,188.5,36,190.8,41.4c0.4,1,0.3,1.7,0.5,1.7
				c5.4-1.4,11.1-5.5,13.9-11.5c4-20.3-14-32.5-18.4-35.4c-0.2-0.1-1.1-1.8-0.8-1.9c3.6-0.3,16.4,3.2,23.2,6.5
				C564.5,185.8,539.6,172.9,539.6,172.9z"/>
			<path class="st4" d="M470.6,251.3c-0.6,0.1-1,0.4-1.2,0.3c-7.4,6.4-14.1,25.1-3.2,39.7c2.8,3.8,5.4,6.2,7.8,7.7
				c2.5-1,5.2-2.3,7.9-3.9C473.4,287.2,459.2,270,470.6,251.3z"/>
			<path class="st4" d="M313.5,87.6c0,0-84.7,3.7-177.7,53.7c-0.2,0.2-0.5,0.8-0.5,0.9c38.8-15.9,113.9-38.5,190.2-28
				C325.5,114.1,314.3,105.5,313.5,87.6z"/>
			<path class="st4" d="M595.5,210.7c-0.2-0.4-2.9-3.3-6.6-5.9c-7.3-21.7-24.6-35.9-31.7-41c-2.8-12.9-17.7-52.7-95.6-90.5
				c-6.3-9.2-10.9-17.3-13-20.8c-0.5-0.9-2.6-4.5-3.5-5c-0.9-0.5-3.8-0.6-3.8-0.6c-14.4-0.8-24.5,7.1-29.7,12.5
				c-16.3-2.2-33.6-3.1-51.8-2.5c-9.4-4.7-16.9-8.8-22-11.6c-5.8-3.2-10.2-5.3-11.6-5.1c-1.4,0.2-4.2,2.4-4.2,2.4
				c-7.1,6-11.1,13-13.4,19.1c-54.2,7-110.4,25.1-167.2,53.8l-0.5,0.3c-45.1,22.8-81.1,52.8-98.8,69c-15.1,13.8-24.5,27.2-23.3,29.6
				c1.1,2.4,17.6-2.6,40.6-4.1c23-1.5,32.9-0.9,48.1-0.3c41.2,1.6,100.2,24.1,120.8,75.2c19,47.1,47.3,73.3,86.4,79.6
				c21.6,3.6,30.2-0.8,28.5-2.5c-2.7-2.6-6.1-4-12.2-13.7c-7.1-11.3-9.1-27.3-5-42.2c2.6-9.6,10-26.1,30.3-34.9
				c10.8-4.7,12.8-4.7,12.8-4.7c0.7,0.2,1.6,0.5,2.3,0.8c51.1,15.1,57.4,40.7,60.4,53c1.3,5.1,2.4,10,7.6,11.8
				c38.6,14,68.4-6.1,69.6-7l5.6-3.9l-3.1-6.1c0-0.1-0.4-0.8-1.2-2.2c3.5-5.4,4.8-11.1,5.1-15.8c0.6-8.9-2.9-17.1-5.9-18.1
				c-0.6-0.2-4.7,3.1-9.1,4.8c-1-1.9-2.7-4.4-4.5-4.9c-0.9-0.2-3.2,1.8-7.3,3c-2.1-2.6-4.1-6.1-5.4-9.3c-2.3-5.9-4-15,8.4-25.1
				c10-8.2,21.7-6.4,26.3-4.6c0,11.9-7.5,23.2-7.2,23.9c2,3.4,11.5,4.1,15.9,3.2c3.9-0.8,6.4-1.9,8.8-3.2c2.1,2.8,3.6,3.4,5.5,3.3
				l2.4-0.4c15.4-3.3,29.2-15,35.1-24.8c13.1-11.3,16.3-29.4,16.4-30.2C595.1,214.8,595.7,211.1,595.5,210.7z M572.6,239.8
				c-4.4,8.4-16.7,19.2-30.4,22.2c-0.3,0-0.3,0-0.4-0.2c-1.1-3.9-2.5-7.1-3-6.8c-6,6.1-16.2,8.7-18.6,9.1c-0.4,0.1-0.4-0.2-0.2-0.7
				c1.5-2.7,6.8-10.5,5.9-24.2c-1-3.9-22.3-11.5-39.1,2.3c-12.3,10.1-15.5,21.7-10.7,34.1c2.2,5.7,6.7,12.7,11.2,16.1
				c2.8-0.3,5.5-2.6,6.6-3.7c0.4-0.4,0.7-0.2,0.9,0.4c0.4,2,0.9,6.4-1.3,10c0.1,0.1,0.1,0.1,0.2,0.2c3.7-1.7,8.1-4.6,12.9-9.5
				c0.2-0.2,0.7-0.3,0.8,0.4c0.6,3.3,1.7,14.3-6.4,22.8c2.5,4.4,3.5,6.4,3.5,6.4s-27.2,18.8-62.5,6.1c-5.5-2,2.3-44-68.5-65
				c-22.5-7.1-75-27.9-65.6-63.9c0.4-1.1,0.8-2.3,1.4-3c-3.6-1.1-58.1-17.3-112.7,21.9l-0.2,0.7c11.2-5.6,55.1-25.1,95.1-9.7
				c2.2,31.8,49.9,49.7,66.2,56.5c-45.6,15.7-51.2,70.3-29.6,95.7c0,0,0.1,0.1,0.1,0.1c-32.1-1.5-68.3-15.5-92.7-76.1
				c-24.1-59.8-96.1-82.3-138.8-80c-0.8-0.8,4.6-6.2,12.7-10.7c84.1-45.6,179.9-48.4,226.7-35.8l0.8-0.8
				c-130.3-48-273.4,32.1-302.3,49.7c-0.1-0.6,1.2-2.7,2.4-4.2c6.1-6.1,48.8-48,107.5-77.6c18.4-9.3,86.8-44.1,170.1-53.8
				c1.5-5.5,4.8-13.5,12.2-19.9c0.1-0.1,0.5-0.3,1.2,0c3.3,1.6,14.2,8.1,30.2,15.9c20.2-0.8,39.1,0.2,56.6,3
				c2.8-3.6,11.6-13.5,25.4-13c0.6,0,0.8,0.2,0.9,0.4c1.4,2.4,7.1,12.8,15.2,24.4c91.2,43.7,93.6,88.9,93.6,88.9
				s24.6,15.1,32.2,41.3c4.4,3,4.9,3.4,5,3.8C587.4,213.8,584.6,230.4,572.6,239.8z"/>
		</g>
		<g>
			<g>
				<path class="st4" d="M487.2,160.2c0.1-1.4,0.7-2.7,1.6-3.7c0.6,0.4,1.3,0.7,1.7,0.7l0.3,0c1.2,0.1,2.3-0.9,2.4-2.1
					c0,0,0.4-0.2,0.8-0.4c-1.4-1.8-3-3.6-4.5-5.4c0,0-6.7,0.8-6.5,8.2c0,0,1.6,1.3,4.2,3.1L487.2,160.2z"/>
				<path class="st4" d="M500,162.5c-0.3,1.5-1.2,2.8-2.5,3.7c1.8,0.8,3.7,1.5,5.8,2.1c0.2-0.3,0.2-0.9,0.2-0.9
					S502.2,165.4,500,162.5z"/>
			</g>
		</g>
	</g>
</g>
<g id="rgb">
	<g>
		<path class="st5" d="M588.9,204.8c-7.3-21.7-24.6-35.9-31.7-41c-2.8-12.9-17.7-52.7-95.6-90.5c-6.3-9.2-10.9-17.3-13-20.8
			c-0.5-0.9-2.6-4.5-3.5-5s-3.8-0.6-3.8-0.6c-14.4-0.8-24.5,7.1-29.7,12.5c-16.3-2.2-33.6-3.1-51.8-2.5c-9.4-4.7-16.9-8.8-22-11.6
			c-5.8-3.2-10.2-5.3-11.6-5.1c-1.4,0.2-4.2,2.4-4.2,2.4c-7.1,6-11.1,13-13.4,19.1c-54.2,7-110.4,25.1-167.2,53.8l-0.5,0.3
			c-45.1,22.8-81.1,52.8-98.8,69c-15.1,13.8-24.5,27.2-23.3,29.6c1.1,2.4,17.6-2.6,40.6-4.1s32.9-0.9,48.1-0.3
			c41.2,1.6,100.2,24.1,120.8,75.2c19,47.1,47.3,73.3,86.4,79.6c21.6,3.6,30.2-0.8,28.5-2.5c-2.7-2.6-6.1-4-12.2-13.7
			c-7.1-11.3-9.1-27.3-5-42.2c2.6-9.6,10-26.1,30.3-34.9c10.8-4.7,12.8-4.7,12.8-4.7c0.7,0.2,1.6,0.5,2.3,0.8
			c51.1,15.1,57.4,40.7,60.4,53c1.3,5.1,2.4,10,7.6,11.8c38.6,14,68.4-6.1,69.6-7l5.6-3.9l-3.1-6.1c0-0.1-0.4-0.8-1.2-2.2
			c3.5-5.4,4.8-11.1,5.1-15.8c0.6-8.9-2.9-17.1-5.9-18.1c-0.6-0.2-4.7,3.1-9.1,4.8c-1-1.9-2.7-4.4-4.5-4.9c-0.9-0.2-3.2,1.8-7.3,3
			c-2.1-2.6-4.1-6.1-5.4-9.3c-2.3-5.9-4-15,8.4-25.1c10-8.2,21.7-6.4,26.3-4.6c0,11.9-7.5,23.2-7.2,23.9c2,3.4,11.5,4.1,15.9,3.2
			c3.9-0.8,6.4-1.9,8.8-3.2c2.1,2.8,3.6,3.4,5.5,3.3l2.4-0.4c15.4-3.3,29.2-15,35.1-24.8c13.1-11.3,16.3-29.4,16.4-30.2
			c0,0,0.5-3.7,0.4-4.1C595.3,210.2,592.6,207.3,588.9,204.8z"/>
		<path d="M587.2,213.5c-0.2-0.3-0.7-0.8-5-3.8c-7.6-26.2-32.2-41.3-32.2-41.3s-2.4-45.2-93.6-88.9c-8.1-11.6-13.8-22-15.2-24.4
			c-0.1-0.2-0.3-0.3-0.9-0.4c-13.8-0.5-22.6,9.4-25.4,13c-17.6-2.7-36.4-3.7-56.6-3c-16-7.9-26.9-14.4-30.2-15.9
			c-0.7-0.3-1.1-0.1-1.2,0c-7.4,6.4-10.7,14.4-12.2,19.9c-83.3,9.7-151.7,44.6-170.1,53.8c-58.7,29.6-101.3,71.5-107.5,77.6
			c-1.3,1.4-2.5,3.5-2.4,4.2c28.9-17.6,172-97.7,302.3-49.7l-0.8,0.8c-46.8-12.6-142.6-9.8-226.7,35.8c-8,4.5-13.5,9.9-12.7,10.7
			c42.7-2.3,114.8,20.3,138.8,80c24.4,60.6,60.7,74.5,92.7,76.1c0,0,0-0.1-0.1-0.1c-21.6-25.4-16-80,29.6-95.7
			c-16.3-6.7-64.1-24.7-66.2-56.5c-40-15.4-83.9,4.1-95.1,9.7l0.2-0.7c54.6-39.1,109.1-23,112.7-21.9c-0.5,0.7-1,1.9-1.4,3
			c-9.4,36,43.1,56.8,65.6,63.9c70.8,20.9,63,63,68.5,65c35.3,12.7,62.5-6.1,62.5-6.1s-1-2-3.5-6.4c8-8.6,6.9-19.5,6.4-22.8
			c-0.1-0.6-0.6-0.6-0.8-0.4c-4.8,4.9-9.2,7.8-12.9,9.5c-0.1-0.1-0.1-0.1-0.2-0.2c2.2-3.6,1.7-8,1.3-10c-0.1-0.7-0.5-0.8-0.9-0.4
			c-1.2,1.1-3.8,3.4-6.6,3.7c-4.5-3.3-9-10.4-11.2-16.1c-4.8-12.4-1.6-23.9,10.7-34.1c16.8-13.8,38.1-6.2,39.1-2.3
			c0.8,13.7-4.4,21.5-5.9,24.2c-0.3,0.5-0.2,0.8,0.2,0.7c2.4-0.4,12.6-2.9,18.6-9.1c0.4-0.3,1.9,2.9,3,6.8c0.1,0.2,0.1,0.2,0.4,0.2
			c13.6-3.1,25.9-13.9,30.4-22.2C584.6,230.4,587.4,213.8,587.2,213.5z"/>
		<g>
			<g>
				<g>
					<path class="st4" d="M487.2,160.2c0.1-1.4,0.7-2.7,1.6-3.7c0.6,0.4,1.3,0.7,1.7,0.7l0.3,0c1.2,0.1,2.3-0.9,2.4-2.1
						c0,0,0.4-0.2,0.8-0.4c-1.4-1.8-3-3.6-4.5-5.4c0,0-6.7,0.8-6.5,8.2c0,0,1.6,1.3,4.2,3.1L487.2,160.2z"/>
					<path class="st4" d="M500,162.5c-0.3,1.5-1.2,2.8-2.5,3.7c1.8,0.8,3.7,1.5,5.8,2.1c0.2-0.3,0.2-0.9,0.2-0.9
						S502.2,165.4,500,162.5z"/>
				</g>
			</g>
			<path class="st5" d="M313.5,87.6c0,0-84.7,3.7-177.7,53.7c-0.2,0.2-0.5,0.8-0.5,0.9c38.8-15.9,113.9-38.5,190.2-28
				C325.5,114.1,314.3,105.5,313.5,87.6z"/>
			<g>
				<path class="st6" d="M473.9,298.9c2.5-1,5.2-2.3,7.9-3.9c-8.4-7.9-22.6-25-11.3-43.8c-0.6,0.1-1,0.4-1.2,0.3
					c-7.4,6.4-14.1,25.1-3.2,39.7C469,295,471.6,297.4,473.9,298.9z"/>
				<path class="st5" d="M547,199c-0.2-0.1-1.1-1.8-0.8-1.9c3.6-0.3,16.4,3.2,23.2,6.5c-4.9-17.8-29.9-30.7-29.9-30.7
					s-3.7-29.4-48.4-60c-35-23.9-77.3-31.4-101.4-29.2c0,0,17.4,9.9,35,17.5c0.6,0.3,0,0.4-0.3,0.5c-45.3-8.7-87.9-30.9-92.8-33.3
					c-4.1,1.4-12.7,34.6,19.1,53c12.9,7.5,18.8,6.2,20.1,5.7c-31.6-9.3-29.7-35.7-29.1-40c0.1-0.6,0.4-0.5,0.4-0.5
					c2.2,0,28.5,14.7,65.3,21.8c0.3,0.1,0.7,0.1,1.1,0.2c0.1,0.2,0.2,0.4,0.2,0.6c4.1,13-17,12.6-18,15c29.8,3,64.1,14.9,83.9,30.4
					c2.3-16.8-8.5-22.4-11.5-23.6c-0.5-0.2-0.2-0.3,0.2-0.4c1.2-0.3,5.2-0.6,9-0.1c42.4,5.8,31.5,42.7,55,44.7
					c-0.9,2.2-4.9,8.1-15.2,5.2c-62-17.8-132.4-4.6-132.4-4.6l-0.2,0.6c90.8-4.1,133.9,14.8,151.4,28.8c0,0,0.1,0.1,0.2,0.2
					c0.1,0.1,0.1,1.2,0.1,1.5c0,0.1-0.1,0-0.1,0c-81.6-28.5-170.5-4.5-170.5-4.5l-0.3,0.6c158.7-18.3,188.5,36,190.8,41.4
					c0.4,1,0.3,1.7,0.5,1.7c5.4-1.4,11.1-5.5,13.9-11.5C569.5,214.1,551.5,201.9,547,199z"/>
			</g>
		</g>
	</g>
</g>
</svg>
